<mxfile host="app.diagrams.net" modified="2023-12-10T19:42:33.744Z" agent="Mozilla/5.0 (Windows NT 10.0; Win64; x64) AppleWebKit/537.36 (KHTML, like Gecko) Chrome/120.0.0.0 Safari/537.36" etag="XJAaEzC9TPhtUxSTs-Q_" version="22.1.7" type="github">
  <diagram name="Strona-1" id="mM8XAsBqv4x4Bivd-nLs">
    <mxGraphModel dx="1434" dy="746" grid="1" gridSize="10" guides="1" tooltips="1" connect="1" arrows="1" fold="1" page="1" pageScale="1" pageWidth="827" pageHeight="1169" math="0" shadow="0">
      <root>
        <mxCell id="0" />
        <mxCell id="1" parent="0" />
        <mxCell id="VzqkJZjQLEDMQbsC97g3-3" style="edgeStyle=orthogonalEdgeStyle;rounded=0;orthogonalLoop=1;jettySize=auto;html=1;fontFamily=Roboto;fontSource=https%3A%2F%2Ffonts.googleapis.com%2Fcss%3Ffamily%3DRoboto;fontStyle=0;fontSize=16;strokeWidth=2;" edge="1" parent="1" source="VzqkJZjQLEDMQbsC97g3-1" target="VzqkJZjQLEDMQbsC97g3-2">
          <mxGeometry relative="1" as="geometry" />
        </mxCell>
        <mxCell id="VzqkJZjQLEDMQbsC97g3-1" value="Great, i have found a nice stock" style="rounded=0;whiteSpace=wrap;html=1;fillColor=#d5e8d4;strokeColor=#82b366;fontFamily=Roboto;fontSource=https%3A%2F%2Ffonts.googleapis.com%2Fcss%3Ffamily%3DRoboto;fontStyle=1;fontSize=14;" vertex="1" parent="1">
          <mxGeometry x="354" y="60" width="150" height="60" as="geometry" />
        </mxCell>
        <mxCell id="VzqkJZjQLEDMQbsC97g3-11" style="edgeStyle=orthogonalEdgeStyle;rounded=0;orthogonalLoop=1;jettySize=auto;html=1;fontFamily=Roboto;fontSource=https%3A%2F%2Ffonts.googleapis.com%2Fcss%3Ffamily%3DRoboto;fontStyle=0;fontSize=16;strokeWidth=2;" edge="1" parent="1" source="VzqkJZjQLEDMQbsC97g3-2" target="VzqkJZjQLEDMQbsC97g3-10">
          <mxGeometry relative="1" as="geometry" />
        </mxCell>
        <mxCell id="VzqkJZjQLEDMQbsC97g3-14" value="YES" style="edgeLabel;html=1;align=center;verticalAlign=middle;resizable=0;points=[];" vertex="1" connectable="0" parent="VzqkJZjQLEDMQbsC97g3-11">
          <mxGeometry x="-0.2941" y="3" relative="1" as="geometry">
            <mxPoint as="offset" />
          </mxGeometry>
        </mxCell>
        <mxCell id="VzqkJZjQLEDMQbsC97g3-13" style="edgeStyle=orthogonalEdgeStyle;rounded=0;orthogonalLoop=1;jettySize=auto;html=1;entryX=0.5;entryY=0;entryDx=0;entryDy=0;" edge="1" parent="1" source="VzqkJZjQLEDMQbsC97g3-2" target="VzqkJZjQLEDMQbsC97g3-12">
          <mxGeometry relative="1" as="geometry" />
        </mxCell>
        <mxCell id="VzqkJZjQLEDMQbsC97g3-15" value="NO" style="edgeLabel;html=1;align=center;verticalAlign=middle;resizable=0;points=[];" vertex="1" connectable="0" parent="VzqkJZjQLEDMQbsC97g3-13">
          <mxGeometry x="-0.2857" y="2" relative="1" as="geometry">
            <mxPoint as="offset" />
          </mxGeometry>
        </mxCell>
        <mxCell id="VzqkJZjQLEDMQbsC97g3-2" value="Is it on my blacklist?" style="rhombus;whiteSpace=wrap;html=1;fillColor=#dae8fc;strokeColor=#6c8ebf;fontFamily=Roboto;fontSource=https%3A%2F%2Ffonts.googleapis.com%2Fcss%3Ffamily%3DRoboto;fontStyle=0;fontSize=14;" vertex="1" parent="1">
          <mxGeometry x="354" y="200" width="150" height="150" as="geometry" />
        </mxCell>
        <mxCell id="VzqkJZjQLEDMQbsC97g3-6" style="edgeStyle=orthogonalEdgeStyle;rounded=0;orthogonalLoop=1;jettySize=auto;html=1;strokeColor=none;fontFamily=Roboto;fontSource=https%3A%2F%2Ffonts.googleapis.com%2Fcss%3Ffamily%3DRoboto;fontStyle=0;fontSize=16;strokeWidth=2;" edge="1" parent="1" source="VzqkJZjQLEDMQbsC97g3-5" target="VzqkJZjQLEDMQbsC97g3-2">
          <mxGeometry relative="1" as="geometry" />
        </mxCell>
        <mxCell id="VzqkJZjQLEDMQbsC97g3-7" style="edgeStyle=orthogonalEdgeStyle;orthogonalLoop=1;jettySize=auto;html=1;curved=1;strokeColor=default;dashed=1;fontFamily=Roboto;fontSource=https%3A%2F%2Ffonts.googleapis.com%2Fcss%3Ffamily%3DRoboto;fontStyle=0;fontSize=14;" edge="1" parent="1" source="VzqkJZjQLEDMQbsC97g3-5" target="VzqkJZjQLEDMQbsC97g3-2">
          <mxGeometry relative="1" as="geometry" />
        </mxCell>
        <mxCell id="VzqkJZjQLEDMQbsC97g3-5" value="&lt;h1 style=&quot;font-size: 14px;&quot;&gt;Blacklist&lt;/h1&gt;&lt;div style=&quot;font-size: 14px;&quot;&gt;&lt;ol style=&quot;border-color: var(--border-color); font-size: 14px;&quot;&gt;&lt;li style=&quot;border-color: var(--border-color); font-size: 14px;&quot;&gt;Bank&lt;/li&gt;&lt;li style=&quot;border-color: var(--border-color); font-size: 14px;&quot;&gt;Insurance&lt;/li&gt;&lt;li style=&quot;border-color: var(--border-color); font-size: 14px;&quot;&gt;Healthcare&lt;/li&gt;&lt;li style=&quot;border-color: var(--border-color); font-size: 14px;&quot;&gt;Car / autoparts industry&lt;/li&gt;&lt;/ol&gt;&lt;/div&gt;" style="text;html=1;strokeColor=none;fillColor=none;spacing=5;spacingTop=-20;whiteSpace=wrap;overflow=hidden;rounded=0;fontFamily=Roboto;fontSource=https%3A%2F%2Ffonts.googleapis.com%2Fcss%3Ffamily%3DRoboto;fontStyle=0;fontSize=14;" vertex="1" parent="1">
          <mxGeometry x="70" y="215" width="190" height="165" as="geometry" />
        </mxCell>
        <mxCell id="VzqkJZjQLEDMQbsC97g3-10" value="Don&#39;t buy it" style="ellipse;whiteSpace=wrap;html=1;aspect=fixed;fillColor=#f8cecc;strokeColor=#b85450;fontFamily=Roboto;fontSource=https%3A%2F%2Ffonts.googleapis.com%2Fcss%3Ffamily%3DRoboto;fontStyle=1;fontSize=14;" vertex="1" parent="1">
          <mxGeometry x="640" y="215" width="120" height="120" as="geometry" />
        </mxCell>
        <mxCell id="VzqkJZjQLEDMQbsC97g3-17" style="edgeStyle=orthogonalEdgeStyle;rounded=0;orthogonalLoop=1;jettySize=auto;html=1;" edge="1" parent="1" source="VzqkJZjQLEDMQbsC97g3-12" target="VzqkJZjQLEDMQbsC97g3-16">
          <mxGeometry relative="1" as="geometry" />
        </mxCell>
        <mxCell id="VzqkJZjQLEDMQbsC97g3-21" style="edgeStyle=orthogonalEdgeStyle;rounded=0;orthogonalLoop=1;jettySize=auto;html=1;" edge="1" parent="1" source="VzqkJZjQLEDMQbsC97g3-12" target="VzqkJZjQLEDMQbsC97g3-20">
          <mxGeometry relative="1" as="geometry" />
        </mxCell>
        <mxCell id="VzqkJZjQLEDMQbsC97g3-22" value="YES" style="edgeLabel;html=1;align=center;verticalAlign=middle;resizable=0;points=[];" vertex="1" connectable="0" parent="VzqkJZjQLEDMQbsC97g3-21">
          <mxGeometry x="-0.02" y="-2" relative="1" as="geometry">
            <mxPoint as="offset" />
          </mxGeometry>
        </mxCell>
        <mxCell id="VzqkJZjQLEDMQbsC97g3-12" value="Is the company profitable?" style="rhombus;whiteSpace=wrap;html=1;fillColor=#dae8fc;strokeColor=#6c8ebf;fontFamily=Roboto;fontSource=https%3A%2F%2Ffonts.googleapis.com%2Fcss%3Ffamily%3DRoboto;fontStyle=0;fontSize=14;" vertex="1" parent="1">
          <mxGeometry x="354" y="420" width="150" height="150" as="geometry" />
        </mxCell>
        <mxCell id="VzqkJZjQLEDMQbsC97g3-18" style="edgeStyle=orthogonalEdgeStyle;rounded=0;orthogonalLoop=1;jettySize=auto;html=1;" edge="1" parent="1" source="VzqkJZjQLEDMQbsC97g3-16">
          <mxGeometry relative="1" as="geometry">
            <mxPoint x="700" y="340" as="targetPoint" />
          </mxGeometry>
        </mxCell>
        <mxCell id="VzqkJZjQLEDMQbsC97g3-19" value="NO" style="edgeLabel;html=1;align=center;verticalAlign=middle;resizable=0;points=[];" vertex="1" connectable="0" parent="VzqkJZjQLEDMQbsC97g3-18">
          <mxGeometry x="-0.205" relative="1" as="geometry">
            <mxPoint as="offset" />
          </mxGeometry>
        </mxCell>
        <mxCell id="VzqkJZjQLEDMQbsC97g3-16" value="Is it likely to be profitable anytime soon?" style="rhombus;whiteSpace=wrap;html=1;fillColor=#dae8fc;strokeColor=#6c8ebf;fontFamily=Roboto;fontSource=https%3A%2F%2Ffonts.googleapis.com%2Fcss%3Ffamily%3DRoboto;fontStyle=0;fontSize=12;" vertex="1" parent="1">
          <mxGeometry x="625" y="420" width="150" height="150" as="geometry" />
        </mxCell>
        <mxCell id="VzqkJZjQLEDMQbsC97g3-27" style="edgeStyle=orthogonalEdgeStyle;rounded=0;orthogonalLoop=1;jettySize=auto;html=1;" edge="1" parent="1" source="VzqkJZjQLEDMQbsC97g3-20" target="VzqkJZjQLEDMQbsC97g3-26">
          <mxGeometry relative="1" as="geometry" />
        </mxCell>
        <mxCell id="VzqkJZjQLEDMQbsC97g3-20" value="Is the company growing?" style="rhombus;whiteSpace=wrap;html=1;fillColor=#dae8fc;strokeColor=#6c8ebf;fontFamily=Roboto;fontSource=https%3A%2F%2Ffonts.googleapis.com%2Fcss%3Ffamily%3DRoboto;fontStyle=0;fontSize=14;" vertex="1" parent="1">
          <mxGeometry x="354" y="670" width="150" height="150" as="geometry" />
        </mxCell>
        <mxCell id="VzqkJZjQLEDMQbsC97g3-29" style="edgeStyle=orthogonalEdgeStyle;rounded=0;orthogonalLoop=1;jettySize=auto;html=1;" edge="1" parent="1" source="VzqkJZjQLEDMQbsC97g3-26" target="VzqkJZjQLEDMQbsC97g3-28">
          <mxGeometry relative="1" as="geometry" />
        </mxCell>
        <mxCell id="VzqkJZjQLEDMQbsC97g3-30" value="YES" style="edgeLabel;html=1;align=center;verticalAlign=middle;resizable=0;points=[];" vertex="1" connectable="0" parent="VzqkJZjQLEDMQbsC97g3-29">
          <mxGeometry x="-0.2" y="5" relative="1" as="geometry">
            <mxPoint as="offset" />
          </mxGeometry>
        </mxCell>
        <mxCell id="VzqkJZjQLEDMQbsC97g3-26" value="Is the company declining?" style="rhombus;whiteSpace=wrap;html=1;fillColor=#dae8fc;strokeColor=#6c8ebf;fontFamily=Roboto;fontSource=https%3A%2F%2Ffonts.googleapis.com%2Fcss%3Ffamily%3DRoboto;fontStyle=0;fontSize=12;" vertex="1" parent="1">
          <mxGeometry x="625" y="670" width="150" height="150" as="geometry" />
        </mxCell>
        <mxCell id="VzqkJZjQLEDMQbsC97g3-28" value="Don&#39;t buy it" style="ellipse;whiteSpace=wrap;html=1;aspect=fixed;fillColor=#f8cecc;strokeColor=#b85450;fontFamily=Roboto;fontSource=https%3A%2F%2Ffonts.googleapis.com%2Fcss%3Ffamily%3DRoboto;fontStyle=1;fontSize=14;" vertex="1" parent="1">
          <mxGeometry x="640" y="890" width="120" height="120" as="geometry" />
        </mxCell>
      </root>
    </mxGraphModel>
  </diagram>
</mxfile>
